<mxfile host="app.diagrams.net" modified="2021-07-13T05:40:27.249Z" agent="5.0 (Windows NT 10.0; Win64; x64) AppleWebKit/537.36 (KHTML, like Gecko) Chrome/91.0.4472.106 Safari/537.36" etag="2VFZ5QuvE_cH7c7oEWSY" version="14.8.6" type="github">
  <diagram name="Page-1" id="5f0bae14-7c28-e335-631c-24af17079c00">
    <mxGraphModel dx="1038" dy="556" grid="1" gridSize="10" guides="1" tooltips="1" connect="1" arrows="1" fold="1" page="1" pageScale="1" pageWidth="1100" pageHeight="850" background="none" math="0" shadow="0">
      <root>
        <mxCell id="0" />
        <mxCell id="1" parent="0" />
        <mxCell id="39150e848f15840c-1" value="EDSS.Controllers" style="verticalAlign=top;align=left;spacingTop=8;spacingLeft=2;spacingRight=12;shape=cube;size=10;direction=south;fontStyle=4;html=1;rounded=0;shadow=0;comic=0;labelBackgroundColor=none;strokeWidth=1;fontFamily=Verdana;fontSize=12" parent="1" vertex="1">
          <mxGeometry x="130" y="60" width="210" height="250" as="geometry" />
        </mxCell>
        <mxCell id="39150e848f15840c-5" value="Models" style="shape=component;align=left;spacingLeft=36;rounded=0;shadow=0;comic=0;labelBackgroundColor=none;strokeWidth=1;fontFamily=Verdana;fontSize=12;html=1;" parent="1" vertex="1">
          <mxGeometry x="140" y="110" width="120" height="60" as="geometry" />
        </mxCell>
        <mxCell id="Fejk4QI_jDKwbszipvCR-1" value="EDSS.Repositories" style="verticalAlign=top;align=left;spacingTop=8;spacingLeft=2;spacingRight=12;shape=cube;size=10;direction=south;fontStyle=4;html=1;rounded=0;shadow=0;comic=0;labelBackgroundColor=none;strokeWidth=1;fontFamily=Verdana;fontSize=12" vertex="1" parent="1">
          <mxGeometry x="500" y="280" width="220" height="130" as="geometry" />
        </mxCell>
        <mxCell id="Fejk4QI_jDKwbszipvCR-2" value="EDSS.RepositoryModel" style="shape=component;align=left;spacingLeft=36;rounded=0;shadow=0;comic=0;labelBackgroundColor=none;strokeWidth=1;fontFamily=Verdana;fontSize=12;html=1;" vertex="1" parent="1">
          <mxGeometry x="510" y="320" width="180" height="60" as="geometry" />
        </mxCell>
        <mxCell id="Fejk4QI_jDKwbszipvCR-3" value="EDSS.DataPlatform" style="verticalAlign=top;align=left;spacingTop=8;spacingLeft=2;spacingRight=12;shape=cube;size=10;direction=south;fontStyle=4;html=1;rounded=0;shadow=0;comic=0;labelBackgroundColor=none;strokeWidth=1;fontFamily=Verdana;fontSize=12" vertex="1" parent="1">
          <mxGeometry x="500" y="610" width="220" height="130" as="geometry" />
        </mxCell>
        <mxCell id="Fejk4QI_jDKwbszipvCR-4" value="EDSS.APISource" style="verticalAlign=top;align=left;spacingTop=8;spacingLeft=2;spacingRight=12;shape=cube;size=10;direction=south;fontStyle=4;html=1;rounded=0;shadow=0;comic=0;labelBackgroundColor=none;strokeWidth=1;fontFamily=Verdana;fontSize=12" vertex="1" parent="1">
          <mxGeometry x="500" y="450" width="220" height="130" as="geometry" />
        </mxCell>
        <mxCell id="Fejk4QI_jDKwbszipvCR-5" value="ModelsV2" style="shape=component;align=left;spacingLeft=36;rounded=0;shadow=0;comic=0;labelBackgroundColor=none;strokeWidth=1;fontFamily=Verdana;fontSize=12;html=1;" vertex="1" parent="1">
          <mxGeometry x="520" y="650" width="120" height="60" as="geometry" />
        </mxCell>
        <mxCell id="Fejk4QI_jDKwbszipvCR-6" value="EDSS.RepositoryModel" style="shape=component;align=left;spacingLeft=36;rounded=0;shadow=0;comic=0;labelBackgroundColor=none;strokeWidth=1;fontFamily=Verdana;fontSize=12;html=1;" vertex="1" parent="1">
          <mxGeometry x="510" y="490" width="180" height="60" as="geometry" />
        </mxCell>
        <mxCell id="Fejk4QI_jDKwbszipvCR-7" value="EDSS.Business" style="verticalAlign=top;align=left;spacingTop=8;spacingLeft=2;spacingRight=12;shape=cube;size=10;direction=south;fontStyle=4;html=1;rounded=0;shadow=0;comic=0;labelBackgroundColor=none;strokeWidth=1;fontFamily=Verdana;fontSize=12" vertex="1" parent="1">
          <mxGeometry x="500" y="120" width="220" height="130" as="geometry" />
        </mxCell>
        <mxCell id="Fejk4QI_jDKwbszipvCR-9" value="EDSS.RepositoryModel" style="shape=component;align=left;spacingLeft=36;rounded=0;shadow=0;comic=0;labelBackgroundColor=none;strokeWidth=1;fontFamily=Verdana;fontSize=12;html=1;" vertex="1" parent="1">
          <mxGeometry x="510" y="160" width="180" height="60" as="geometry" />
        </mxCell>
        <mxCell id="Fejk4QI_jDKwbszipvCR-10" value="EDSS.RepositoryModel" style="shape=component;align=left;spacingLeft=36;rounded=0;shadow=0;comic=0;labelBackgroundColor=none;strokeWidth=1;fontFamily=Verdana;fontSize=12;html=1;" vertex="1" parent="1">
          <mxGeometry x="140" y="190" width="180" height="60" as="geometry" />
        </mxCell>
      </root>
    </mxGraphModel>
  </diagram>
</mxfile>
